<?xml version="1.0" ?><svg enable-background="new 0 0 32 32" version="1.1" viewBox="0 0 32 32" xml:space="preserve" xmlns="http://www.w3.org/2000/svg" xmlns:xlink="http://www.w3.org/1999/xlink"><g id="Outline_copy"><g><path d="M16,0C7.163,0,0,7.163,0,16s7.163,16,16,16s16-7.163,16-16S24.837,0,16,0z M23.778,19.243    c-0.195,0.195-0.451,0.293-0.707,0.293s-0.512-0.098-0.707-0.293L16,12.878l-6.364,6.364c-0.391,0.391-1.023,0.391-1.414,0    s-0.391-1.023,0-1.414l7.071-7.071c0.391-0.391,1.023-0.391,1.414,0l7.071,7.071C24.169,18.219,24.169,18.852,23.778,19.243z"/></g></g></svg>